# xmcd
#
# Track frame offsets:
#	150
#	14548
#	29503
#	39714
#	52377
#	64936
#	77423
#	88245
#	100661
#	113541
#	127019
#	139674
#	155552
#	166953
#	179299
#	190419
#	203562
#	215721
#
# Disc length: 3031 seconds
#
# Revision: 1
# Processed by: cddbd v1.5.1PL0 Copyright (c) Steve Scherf et al.
# Submitted via: audiograbber 1.83.01
#
DISCID=040bd512
DTITLE=Elmore James - Blues After Hours
DYEAR=2005
DGENRE=Blues
TTITLE0=Dust My Blues
TTITLE1=Sunnyland
TTITLE2=Mean and Evil (The Way You Treat Me)
TTITLE3=Dark and Dreary (tk 4)
TTITLE4=Standing at the Crossroads
TTITLE5=Happy Home
TTITLE6=No Love In My Heart
TTITLE7=Blues Before Sunrise
TTITLE8=I Was A Fool
TTITLE9=Goodbye Baby (Good Bye)
TTITLE10=Late Hours at Midnight
TTITLE11=Quarter Past Nine
TTITLE12=Strange Kinda Feeling (tk 1)
TTITLE13=Make My Dreams Come True (tk 2)
TTITLE14=So Mean to Me (tk 4)
TTITLE15=Long Tall Woman
TTITLE16=Wild About You Baby (tk 22)
TTITLE17=Elmo's Shuffle (tk 5)
EXTD=Reissue of Crown 5168 with 8 bonus tracks
EXTT0=
EXTT1=
EXTT2=
EXTT3=
EXTT4=
EXTT5=
EXTT6=
EXTT7=
EXTT8=
EXTT9=
EXTT10=
EXTT11=
EXTT12=
EXTT13=
EXTT14=
EXTT15=
EXTT16=
EXTT17=
PLAYORDER=
